%TF.GenerationSoftware,KiCad,Pcbnew,(5.1.8)-1*%
%TF.CreationDate,2021-08-01T10:57:51-04:00*%
%TF.ProjectId,p3_dx robot controller,70335f64-7820-4726-9f62-6f7420636f6e,rev?*%
%TF.SameCoordinates,Original*%
%TF.FileFunction,Legend,Top*%
%TF.FilePolarity,Positive*%
%FSLAX46Y46*%
G04 Gerber Fmt 4.6, Leading zero omitted, Abs format (unit mm)*
G04 Created by KiCad (PCBNEW (5.1.8)-1) date 2021-08-01 10:57:51*
%MOMM*%
%LPD*%
G01*
G04 APERTURE LIST*
%ADD10C,0.120000*%
%ADD11C,0.150000*%
G04 APERTURE END LIST*
D10*
%TO.C,P1*%
X13168000Y-9559000D02*
X13168000Y-9579000D01*
X13668000Y-9559000D02*
X13168000Y-9559000D01*
X13668000Y-22589000D02*
X13668000Y-9559000D01*
X13168000Y-22589000D02*
X13668000Y-22589000D01*
X13168000Y-22569000D02*
X13168000Y-22589000D01*
X17758000Y-8139000D02*
X14683000Y-8139000D01*
X17758000Y-24009000D02*
X17758000Y-8139000D01*
X14683000Y-24009000D02*
X17758000Y-24009000D01*
%TO.C,P2*%
X54670000Y-29150000D02*
X54670000Y-30480000D01*
X53340000Y-29150000D02*
X54670000Y-29150000D01*
X54670000Y-31750000D02*
X54670000Y-34350000D01*
X52070000Y-31750000D02*
X54670000Y-31750000D01*
X52070000Y-29150000D02*
X52070000Y-31750000D01*
X54670000Y-34350000D02*
X21530000Y-34350000D01*
X52070000Y-29150000D02*
X21530000Y-29150000D01*
X21530000Y-29150000D02*
X21530000Y-34350000D01*
%TO.C,P3*%
X9204000Y-21904000D02*
X7874000Y-21904000D01*
X9204000Y-20574000D02*
X9204000Y-21904000D01*
X6604000Y-21904000D02*
X4004000Y-21904000D01*
X6604000Y-19304000D02*
X6604000Y-21904000D01*
X9204000Y-19304000D02*
X6604000Y-19304000D01*
X4004000Y-21904000D02*
X4004000Y-9084000D01*
X9204000Y-19304000D02*
X9204000Y-9084000D01*
X9204000Y-9084000D02*
X4004000Y-9084000D01*
%TO.C,P4*%
X41970000Y-13910000D02*
X41970000Y-15240000D01*
X40640000Y-13910000D02*
X41970000Y-13910000D01*
X41970000Y-16510000D02*
X41970000Y-19110000D01*
X39370000Y-16510000D02*
X41970000Y-16510000D01*
X39370000Y-13910000D02*
X39370000Y-16510000D01*
X41970000Y-19110000D02*
X21530000Y-19110000D01*
X39370000Y-13910000D02*
X21530000Y-13910000D01*
X21530000Y-13910000D02*
X21530000Y-19110000D01*
%TO.C,U1*%
X4970000Y-45780000D02*
X6620000Y-45780000D01*
X4970000Y-27880000D02*
X4970000Y-45780000D01*
X10270000Y-27880000D02*
X4970000Y-27880000D01*
X10270000Y-45780000D02*
X10270000Y-27880000D01*
X8620000Y-45780000D02*
X10270000Y-45780000D01*
X6620000Y-45780000D02*
G75*
G02*
X8620000Y-45780000I1000000J0D01*
G01*
%TO.C,P1*%
D11*
X12530380Y-16812095D02*
X11530380Y-16812095D01*
X11530380Y-16431142D01*
X11578000Y-16335904D01*
X11625619Y-16288285D01*
X11720857Y-16240666D01*
X11863714Y-16240666D01*
X11958952Y-16288285D01*
X12006571Y-16335904D01*
X12054190Y-16431142D01*
X12054190Y-16812095D01*
X12530380Y-15288285D02*
X12530380Y-15859714D01*
X12530380Y-15574000D02*
X11530380Y-15574000D01*
X11673238Y-15669238D01*
X11768476Y-15764476D01*
X11816095Y-15859714D01*
%TO.C,P2*%
X56122380Y-32488095D02*
X55122380Y-32488095D01*
X55122380Y-32107142D01*
X55170000Y-32011904D01*
X55217619Y-31964285D01*
X55312857Y-31916666D01*
X55455714Y-31916666D01*
X55550952Y-31964285D01*
X55598571Y-32011904D01*
X55646190Y-32107142D01*
X55646190Y-32488095D01*
X55217619Y-31535714D02*
X55170000Y-31488095D01*
X55122380Y-31392857D01*
X55122380Y-31154761D01*
X55170000Y-31059523D01*
X55217619Y-31011904D01*
X55312857Y-30964285D01*
X55408095Y-30964285D01*
X55550952Y-31011904D01*
X56122380Y-31583333D01*
X56122380Y-30964285D01*
%TO.C,P3*%
X5865904Y-23356380D02*
X5865904Y-22356380D01*
X6246857Y-22356380D01*
X6342095Y-22404000D01*
X6389714Y-22451619D01*
X6437333Y-22546857D01*
X6437333Y-22689714D01*
X6389714Y-22784952D01*
X6342095Y-22832571D01*
X6246857Y-22880190D01*
X5865904Y-22880190D01*
X6770666Y-22356380D02*
X7389714Y-22356380D01*
X7056380Y-22737333D01*
X7199238Y-22737333D01*
X7294476Y-22784952D01*
X7342095Y-22832571D01*
X7389714Y-22927809D01*
X7389714Y-23165904D01*
X7342095Y-23261142D01*
X7294476Y-23308761D01*
X7199238Y-23356380D01*
X6913523Y-23356380D01*
X6818285Y-23308761D01*
X6770666Y-23261142D01*
%TO.C,P4*%
X43422380Y-17248095D02*
X42422380Y-17248095D01*
X42422380Y-16867142D01*
X42470000Y-16771904D01*
X42517619Y-16724285D01*
X42612857Y-16676666D01*
X42755714Y-16676666D01*
X42850952Y-16724285D01*
X42898571Y-16771904D01*
X42946190Y-16867142D01*
X42946190Y-17248095D01*
X42755714Y-15819523D02*
X43422380Y-15819523D01*
X42374761Y-16057619D02*
X43089047Y-16295714D01*
X43089047Y-15676666D01*
%TO.C,U1*%
X6858095Y-46232380D02*
X6858095Y-47041904D01*
X6905714Y-47137142D01*
X6953333Y-47184761D01*
X7048571Y-47232380D01*
X7239047Y-47232380D01*
X7334285Y-47184761D01*
X7381904Y-47137142D01*
X7429523Y-47041904D01*
X7429523Y-46232380D01*
X8429523Y-47232380D02*
X7858095Y-47232380D01*
X8143809Y-47232380D02*
X8143809Y-46232380D01*
X8048571Y-46375238D01*
X7953333Y-46470476D01*
X7858095Y-46518095D01*
%TD*%
M02*
