%TF.GenerationSoftware,KiCad,Pcbnew,(5.1.8)-1*%
%TF.CreationDate,2021-08-01T10:57:51-04:00*%
%TF.ProjectId,p3_dx robot controller,70335f64-7820-4726-9f62-6f7420636f6e,rev?*%
%TF.SameCoordinates,Original*%
%TF.FileFunction,Soldermask,Bot*%
%TF.FilePolarity,Negative*%
%FSLAX46Y46*%
G04 Gerber Fmt 4.6, Leading zero omitted, Abs format (unit mm)*
G04 Created by KiCad (PCBNEW (5.1.8)-1) date 2021-08-01 10:57:51*
%MOMM*%
%LPD*%
G01*
G04 APERTURE LIST*
%ADD10O,1.600000X1.600000*%
%ADD11R,1.600000X1.600000*%
%ADD12C,1.270000*%
%ADD13O,2.020000X1.500000*%
%ADD14R,1.700000X1.700000*%
%ADD15O,1.700000X1.700000*%
G04 APERTURE END LIST*
D10*
%TO.C,A1*%
X50800000Y-2540000D03*
X53340000Y-2540000D03*
X13720000Y-2540000D03*
X53340000Y-50800000D03*
X16260000Y-2540000D03*
X50800000Y-50800000D03*
X18800000Y-2540000D03*
X48260000Y-50800000D03*
X21340000Y-2540000D03*
X45720000Y-50800000D03*
X23880000Y-2540000D03*
X43180000Y-50800000D03*
X26420000Y-2540000D03*
X40640000Y-50800000D03*
X28960000Y-2540000D03*
X35560000Y-50800000D03*
X31500000Y-2540000D03*
X33020000Y-50800000D03*
X35560000Y-2540000D03*
X30480000Y-50800000D03*
X38100000Y-2540000D03*
X27940000Y-50800000D03*
X40640000Y-2540000D03*
X25400000Y-50800000D03*
X43180000Y-2540000D03*
X22860000Y-50800000D03*
X45720000Y-2540000D03*
X20320000Y-50800000D03*
X48260000Y-2540000D03*
D11*
X17780000Y-50800000D03*
D10*
X11180000Y-2540000D03*
X8640000Y-2540000D03*
%TD*%
%TO.C,C1*%
G36*
G01*
X14335999Y-40662500D02*
X15636001Y-40662500D01*
G75*
G02*
X15886000Y-40912499I0J-249999D01*
G01*
X15886000Y-41737501D01*
G75*
G02*
X15636001Y-41987500I-249999J0D01*
G01*
X14335999Y-41987500D01*
G75*
G02*
X14086000Y-41737501I0J249999D01*
G01*
X14086000Y-40912499D01*
G75*
G02*
X14335999Y-40662500I249999J0D01*
G01*
G37*
G36*
G01*
X14335999Y-43787500D02*
X15636001Y-43787500D01*
G75*
G02*
X15886000Y-44037499I0J-249999D01*
G01*
X15886000Y-44862501D01*
G75*
G02*
X15636001Y-45112500I-249999J0D01*
G01*
X14335999Y-45112500D01*
G75*
G02*
X14086000Y-44862501I0J249999D01*
G01*
X14086000Y-44037499D01*
G75*
G02*
X14335999Y-43787500I249999J0D01*
G01*
G37*
%TD*%
D12*
%TO.C,P1*%
X13788000Y-23574000D03*
X13788000Y-8574000D03*
G36*
G01*
X16508000Y-21324000D02*
X14988000Y-21324000D01*
G75*
G02*
X14738000Y-21074000I0J250000D01*
G01*
X14738000Y-20074000D01*
G75*
G02*
X14988000Y-19824000I250000J0D01*
G01*
X16508000Y-19824000D01*
G75*
G02*
X16758000Y-20074000I0J-250000D01*
G01*
X16758000Y-21074000D01*
G75*
G02*
X16508000Y-21324000I-250000J0D01*
G01*
G37*
D13*
X15748000Y-17574000D03*
X15748000Y-14574000D03*
X15748000Y-11574000D03*
%TD*%
D14*
%TO.C,P2*%
X53340000Y-30480000D03*
D15*
X53340000Y-33020000D03*
X50800000Y-30480000D03*
X50800000Y-33020000D03*
X48260000Y-30480000D03*
X48260000Y-33020000D03*
X45720000Y-30480000D03*
X45720000Y-33020000D03*
X43180000Y-30480000D03*
X43180000Y-33020000D03*
X40640000Y-30480000D03*
X40640000Y-33020000D03*
X38100000Y-30480000D03*
X38100000Y-33020000D03*
X35560000Y-30480000D03*
X35560000Y-33020000D03*
X33020000Y-30480000D03*
X33020000Y-33020000D03*
X30480000Y-30480000D03*
X30480000Y-33020000D03*
X27940000Y-30480000D03*
X27940000Y-33020000D03*
X25400000Y-30480000D03*
X25400000Y-33020000D03*
X22860000Y-30480000D03*
X22860000Y-33020000D03*
%TD*%
D14*
%TO.C,P3*%
X7874000Y-20574000D03*
D15*
X5334000Y-20574000D03*
X7874000Y-18034000D03*
X5334000Y-18034000D03*
X7874000Y-15494000D03*
X5334000Y-15494000D03*
X7874000Y-12954000D03*
X5334000Y-12954000D03*
X7874000Y-10414000D03*
X5334000Y-10414000D03*
%TD*%
D14*
%TO.C,P4*%
X40640000Y-15240000D03*
D15*
X40640000Y-17780000D03*
X38100000Y-15240000D03*
X38100000Y-17780000D03*
X35560000Y-15240000D03*
X35560000Y-17780000D03*
X33020000Y-15240000D03*
X33020000Y-17780000D03*
X30480000Y-15240000D03*
X30480000Y-17780000D03*
X27940000Y-15240000D03*
X27940000Y-17780000D03*
X25400000Y-15240000D03*
X25400000Y-17780000D03*
X22860000Y-15240000D03*
X22860000Y-17780000D03*
%TD*%
D11*
%TO.C,U1*%
X11430000Y-44450000D03*
D10*
X3810000Y-29210000D03*
X11430000Y-41910000D03*
X3810000Y-31750000D03*
X11430000Y-39370000D03*
X3810000Y-34290000D03*
X11430000Y-36830000D03*
X3810000Y-36830000D03*
X11430000Y-34290000D03*
X3810000Y-39370000D03*
X11430000Y-31750000D03*
X3810000Y-41910000D03*
X11430000Y-29210000D03*
X3810000Y-44450000D03*
%TD*%
M02*
