M48
; DRILL file {KiCad (5.1.8)-1} date 08/01/21 10:57:49
; FORMAT={-:-/ absolute / inch / decimal}
; #@! TF.CreationDate,2021-08-01T10:57:49-04:00
; #@! TF.GenerationSoftware,Kicad,Pcbnew,(5.1.8)-1
; #@! TF.FileFunction,Plated,1,2,PTH
FMAT,2
INCH
T1C0.0280
T2C0.0315
T3C0.0394
T4C0.0402
%
G90
G05
T1
X0.05Y-1.35
X0.15Y-1.025
X0.74Y-0.195
X0.75Y-1.4326
X0.75Y-1.525
X0.81Y-0.89
X0.85Y-1.6
X1.04Y-0.24
X1.25Y-1.75
X1.3Y-0.95
X1.6Y-1.575
X1.6Y-1.875
X1.68Y-0.87
X1.7Y-1.775
X1.8Y-1.675
X1.82Y-0.18
X1.9Y-0.19
X1.95Y-0.78
X2.0Y-0.88
X2.05Y-0.83
T2
X0.15Y-1.15
X0.15Y-1.25
X0.15Y-1.35
X0.15Y-1.45
X0.15Y-1.55
X0.15Y-1.65
X0.15Y-1.75
X0.45Y-1.15
X0.45Y-1.25
X0.45Y-1.35
X0.45Y-1.45
X0.45Y-1.55
X0.45Y-1.65
X0.45Y-1.75
T3
X0.9Y-0.6
X0.9Y-0.7
X1.0Y-0.6
X1.0Y-0.7
X1.1Y-0.6
X1.1Y-0.7
X1.2Y-0.6
X1.2Y-0.7
X1.3Y-0.6
X1.3Y-0.7
X1.4Y-0.6
X1.4Y-0.7
X1.5Y-0.6
X1.5Y-0.7
X1.6Y-0.6
X1.6Y-0.7
X0.9Y-1.2
X0.9Y-1.3
X1.0Y-1.2
X1.0Y-1.3
X1.1Y-1.2
X1.1Y-1.3
X1.2Y-1.2
X1.2Y-1.3
X1.3Y-1.2
X1.3Y-1.3
X1.4Y-1.2
X1.4Y-1.3
X1.5Y-1.2
X1.5Y-1.3
X1.6Y-1.2
X1.6Y-1.3
X1.7Y-1.2
X1.7Y-1.3
X1.8Y-1.2
X1.8Y-1.3
X1.9Y-1.2
X1.9Y-1.3
X2.0Y-1.2
X2.0Y-1.3
X2.1Y-1.2
X2.1Y-1.3
X0.3402Y-0.1
X0.4402Y-0.1
X0.5402Y-0.1
X0.6402Y-0.1
X0.7Y-2.0
X0.7402Y-0.1
X0.8Y-2.0
X0.8402Y-0.1
X0.9Y-2.0
X0.9402Y-0.1
X1.0Y-2.0
X1.0402Y-0.1
X1.1Y-2.0
X1.1402Y-0.1
X1.2Y-2.0
X1.2402Y-0.1
X1.3Y-2.0
X1.4Y-0.1
X1.4Y-2.0
X1.5Y-0.1
X1.6Y-0.1
X1.6Y-2.0
X1.7Y-0.1
X1.7Y-2.0
X1.8Y-0.1
X1.8Y-2.0
X1.9Y-0.1
X1.9Y-2.0
X2.0Y-0.1
X2.0Y-2.0
X2.1Y-0.1
X2.1Y-2.0
X0.21Y-0.41
X0.21Y-0.51
X0.21Y-0.61
X0.21Y-0.71
X0.21Y-0.81
X0.31Y-0.41
X0.31Y-0.51
X0.31Y-0.61
X0.31Y-0.71
X0.31Y-0.81
T4
X0.62Y-0.4557
X0.62Y-0.5738
X0.62Y-0.6919
X0.62Y-0.81
T0
M30
